<?xml version="1.0" encoding="UTF-8" standalone="no"?>
<svg xmlns="http://www.w3.org/2000/svg" version="1.1"
     width="3000" height="3000" viewBox="0 0 3000 3000">
  <title>SubGame</title>
  <style type="text/css">
    .fil0 {fill:#0A0A0A}
    .fil1 {fill:#390099}
  </style>
  <g id="Layer_1">
    <path class="fil0" d="M1499.47 2458.51c-364.05,-132.45 -597.64,-363.22 -723.63,-635.67 -180.64,-391.91 -147.28,-1072.9 -147.28,-1072.9 542.01,0 870.91,-208.45 870.91,-208.45l-0.04 -63.19c0,0 -350.57,222.2 -928.32,222.2 0,0 -35.56,725.87 156.99,1143.63 134.3,290.4 383.28,536.39 771.33,677.57l0.04 -63.19z"/>
    <path class="fil1" d="M2224.1 1822.84c-125.93,272.45 -359.51,503.22 -724.63,635.67l-0.04 63.19c389.19,-141.18 638.17,-387.17 772.4,-677.57 192.57,-417.76 157.07,-1143.63 157.07,-1143.63 -577.75,0 -929.47,-222.2 -929.47,-222.2l0.04 63.19c0,0 329.96,208.45 871.98,208.45 0,0 33.31,680.99 -147.35,1072.9z"/>
    <path class="fil1" d="M1029.57 1611.58l218.2 0 0 393.99c-105.35,-81.06 -181.62,-180.26 -232.08,-289.47 -7.03,-15.27 -13.58,-31.2 -19.68,-47.65l-222.21 0c6.76,22.19 14.01,43.9 21.79,64.99 8.68,23.52 18.02,46.28 28.07,68.09 114.37,247.31 323.67,457.86 647.51,583.06l0 -158.75 0 -92.09 0 -745.56 -223.4 0 -15.05 0 -302.58 0c-25.36,-204.47 -16.15,-392.57 -16.15,-392.57 130.97,0 243.43,-18.1 333.78,-41.29l0 96.73 223.4 0 0 -179.7 0 -111.14 0 -139.26c-86.78,46.71 -368.55,178.52 -785.07,178.52 0,0 -22.09,451.08 71.7,812.1l216.44 0 55.33 0z"/>
    <path class="fil0" d="M1471.17 1331.32l0 -223.4 -490.62 0 0 223.4 490.62 0zm280.26 678.14l0 -626.64 0 -51.68 0 -223.38 0 -19.94 0 -133.64c90.57,23.27 203.33,41.44 334.58,41.44 0,0 1.83,37.39 1.61,96.94l223.28 27.65c9.71,-183.58 3,-320.73 3,-320.73 -416.34,0 -698.72,-131.7 -785.87,-178.46l0 137.91 0 112.34 0 236.65 0 223.4 0 77.65 0.01 724.84 -0.01 90.75 0 159.98c324.69,-125.2 533.95,-335.73 648.25,-583.01 82.53,-179.05 117.25,-422.69 131.19,-624.89l-220.65 -27.34 -39.12 -4.84 -239.4 -29.66 0 223.38 263.61 32.65c-13.8,119.74 -39.15,246.84 -84.99,346.27 -51.03,110.41 -128.36,210.64 -235.49,292.36z"/>
  </g>
</svg>
